<svg xmlns="http://www.w3.org/2000/svg" xmlns:xlink="http://www.w3.org/1999/xlink" viewBox="0 0 120.834 36.487" overflow="visible"><path d="M 2.538 14.384 C 1.766 14.402 1.153 14.165 0.699 13.672 C 0.256 13.17 0.023 12.461 0.002 11.545 C -0.012 10.983 0.049 10.324 0.183 9.565 C 0.324 8.798 0.506 7.989 0.727 7.14 C 0.958 6.28 1.209 5.428 1.48 4.587 C 1.751 3.747 2.015 2.965 2.269 2.246 C 2.532 1.514 2.766 0.907 2.964 0.418 C 3.077 0.145 3.246 0.005 3.466 0 C 3.767 -0.007 3.922 0.175 3.931 0.546 C 3.934 0.667 3.884 0.916 3.782 1.29 C 3.681 1.664 3.546 2.13 3.378 2.686 C 3.21 3.234 3.029 3.842 2.833 4.511 C 2.638 5.178 2.439 5.867 2.234 6.576 C 2.04 7.274 1.861 7.968 1.697 8.656 C 1.531 9.334 1.4 9.969 1.306 10.565 C 1.216 11.069 1.172 11.581 1.175 12.093 C 1.168 12.328 1.248 12.557 1.4 12.735 C 1.565 12.886 1.784 12.963 2.007 12.947 C 2.469 12.936 2.928 12.835 3.386 12.645 C 3.852 12.442 4.3 12.199 4.724 11.918 C 5.149 11.627 5.534 11.34 5.879 11.061 C 6.233 10.772 6.534 10.533 6.781 10.346 C 7.026 10.15 7.201 10.049 7.3 10.048 C 7.521 10.042 7.634 10.159 7.64 10.401 C 7.642 10.482 7.565 10.635 7.41 10.859 C 6.947 11.474 6.425 12.042 5.853 12.556 C 5.509 12.865 5.146 13.159 4.76 13.441 C 4.384 13.713 4.003 13.931 3.616 14.102 C 3.238 14.281 2.879 14.375 2.538 14.384 Z M 16.636 6.826 C 16.829 7.354 17.017 7.912 17.202 8.502 C 17.398 9.09 17.556 9.671 17.68 10.241 C 17.813 10.8 17.886 11.303 17.896 11.745 C 17.907 12.247 17.791 12.662 17.549 12.989 C 17.31 13.311 16.995 13.567 16.632 13.735 C 16.255 13.925 15.856 14.055 15.436 14.124 C 15.061 14.201 14.679 14.245 14.295 14.257 C 14.014 14.265 13.818 14.209 13.704 14.091 C 13.607 13.996 13.55 13.868 13.546 13.732 C 13.547 13.632 13.582 13.535 13.645 13.458 C 13.713 13.357 13.89 13.281 14.181 13.235 C 14.401 13.198 14.651 13.144 14.931 13.066 C 15.218 12.989 15.498 12.887 15.766 12.76 C 16.018 12.65 16.249 12.497 16.448 12.307 C 16.62 12.133 16.713 11.896 16.704 11.651 C 16.687 11.075 16.593 10.504 16.424 9.953 L 15.915 8.17 C 15.576 8.721 15.188 9.268 14.749 9.811 C 14.309 10.354 13.839 10.874 13.34 11.369 C 12.863 11.843 12.355 12.283 11.819 12.687 C 11.307 13.07 10.806 13.375 10.32 13.597 C 9.894 13.804 9.43 13.922 8.957 13.945 C 8.265 13.962 7.697 13.734 7.256 13.262 C 6.812 12.779 6.579 12.046 6.556 11.06 C 6.543 10.508 6.586 9.938 6.681 9.353 C 6.78 8.802 6.918 8.259 7.095 7.728 C 7.237 7.303 7.424 6.894 7.654 6.508 C 7.848 6.191 8.03 6.033 8.2 6.028 C 8.322 6.023 8.441 6.063 8.534 6.142 C 8.637 6.219 8.689 6.359 8.694 6.559 C 8.697 6.671 8.656 6.891 8.573 7.226 C 8.492 7.55 8.4 7.935 8.301 8.38 C 8.2 8.814 8.11 9.274 8.03 9.758 C 7.954 10.197 7.92 10.643 7.928 11.088 C 7.94 11.631 8.039 12.027 8.226 12.274 C 8.41 12.514 8.7 12.649 9.003 12.633 C 9.394 12.624 9.836 12.487 10.333 12.224 C 10.874 11.93 11.385 11.584 11.86 11.193 C 12.919 10.309 13.861 9.293 14.664 8.17 C 15.044 7.627 15.337 7.113 15.548 6.624 C 15.512 6.43 15.482 6.235 15.458 6.039 C 15.443 5.838 15.433 5.637 15.429 5.436 C 15.413 5.141 15.463 4.846 15.575 4.573 C 15.68 4.329 15.801 4.14 15.936 4.006 C 16.085 3.87 16.209 3.804 16.31 3.801 C 16.529 3.796 16.709 3.902 16.844 4.121 C 16.98 4.338 17.052 4.659 17.062 5.081 C 17.068 5.332 17.034 5.605 16.961 5.897 C 16.878 6.215 16.77 6.526 16.636 6.826 Z M 8.653 4.161 C 8.372 4.169 8.149 4.098 7.985 3.95 C 7.826 3.781 7.739 3.555 7.744 3.323 C 7.727 3.049 7.831 2.782 8.03 2.593 C 8.216 2.406 8.467 2.297 8.73 2.29 C 8.986 2.271 9.239 2.358 9.429 2.531 C 9.612 2.686 9.709 2.916 9.715 3.217 C 9.721 3.437 9.615 3.652 9.398 3.858 C 9.198 4.051 8.931 4.16 8.653 4.161 Z M 18.73 8.571 C 18.459 8.558 18.33 8.384 18.342 8.052 C 18.351 7.973 18.402 7.876 18.501 7.763 C 18.582 7.65 18.706 7.575 18.843 7.558 C 19.153 7.52 19.533 7.467 19.983 7.395 C 20.443 7.315 20.948 7.221 21.497 7.119 C 21.587 6.624 21.694 6.104 21.822 5.556 C 21.95 5.01 22.093 4.48 22.251 3.962 C 22.409 3.436 22.579 2.959 22.76 2.532 C 22.903 2.17 23.098 1.83 23.338 1.524 C 23.422 1.429 23.523 1.349 23.635 1.29 C 23.707 1.243 23.789 1.216 23.874 1.21 C 24.009 1.203 24.137 1.27 24.21 1.383 C 24.356 1.565 24.396 1.81 24.315 2.029 C 24.127 2.596 23.927 3.296 23.716 4.125 C 23.505 4.955 23.279 5.86 23.042 6.84 C 23.963 6.667 24.882 6.485 25.799 6.294 C 26.591 6.13 27.379 5.955 28.166 5.771 C 28.356 5.685 28.502 5.697 28.604 5.805 C 28.717 5.912 28.774 6.022 28.777 6.133 C 28.78 6.273 28.743 6.38 28.664 6.452 C 28.598 6.522 28.523 6.585 28.443 6.638 L 28.428 6.653 C 28.229 6.739 27.931 6.841 27.532 6.962 C 27.133 7.072 26.674 7.193 26.155 7.326 C 25.032 7.591 23.902 7.829 22.768 8.039 L 22.125 10.784 C 21.919 11.7 21.71 12.616 21.497 13.53 C 21.405 13.895 21.295 14.123 21.166 14.216 C 21.06 14.315 20.923 14.371 20.779 14.376 C 20.62 14.381 20.466 14.319 20.353 14.206 C 20.24 14.088 20.219 13.842 20.291 13.467 L 21.27 8.301 C 20.669 8.405 20.139 8.482 19.679 8.534 C 19.227 8.585 18.911 8.597 18.73 8.571 Z M 33.158 6.558 C 33.165 6.879 33.073 7.199 32.879 7.516 C 32.687 7.822 32.428 8.119 32.103 8.408 C 31.777 8.687 31.418 8.951 31.022 9.203 C 30.305 9.659 29.541 10.036 28.744 10.328 C 28.677 10.672 28.645 11.021 28.648 11.371 C 28.652 11.562 28.7 11.696 28.794 11.775 C 28.884 11.853 29.027 11.889 29.217 11.885 C 29.638 11.876 30.084 11.79 30.552 11.628 C 31.043 11.456 31.521 11.248 31.982 11.006 C 32.468 10.752 32.933 10.485 33.379 10.203 C 33.825 9.921 34.23 9.656 34.595 9.405 C 34.972 9.155 35.282 8.953 35.529 8.795 C 35.777 8.638 35.941 8.559 36.021 8.558 C 36.141 8.555 36.232 8.592 36.295 8.671 C 36.366 8.737 36.406 8.829 36.406 8.926 C 36.406 9.006 36.286 9.164 36.041 9.402 C 35.737 9.699 35.417 9.979 35.082 10.239 C 34.639 10.578 34.185 10.9 33.719 11.206 C 33.215 11.539 32.69 11.855 32.145 12.149 C 31.642 12.428 31.119 12.667 30.579 12.864 C 30.082 13.046 29.634 13.143 29.232 13.152 C 28.711 13.164 28.298 12.978 27.999 12.594 C 27.698 12.208 27.54 11.603 27.52 10.779 C 27.507 10.226 27.565 9.666 27.692 9.101 C 27.829 8.534 28.017 7.991 28.256 7.472 C 28.485 6.977 28.761 6.506 29.081 6.065 C 29.393 5.645 29.721 5.317 30.067 5.077 C 30.413 4.826 30.751 4.7 31.082 4.691 C 31.714 4.676 32.214 4.84 32.584 5.184 C 32.953 5.526 33.144 5.985 33.158 6.558 Z M 29.033 9.16 C 29.34 8.96 29.656 8.752 29.981 8.534 C 30.293 8.326 30.595 8.102 30.885 7.864 C 31.16 7.636 31.381 7.399 31.547 7.155 C 31.712 6.93 31.8 6.658 31.798 6.378 C 31.789 6.007 31.585 5.825 31.184 5.835 C 30.933 5.841 30.671 6.007 30.397 6.336 C 30.096 6.716 29.843 7.133 29.644 7.576 C 29.403 8.089 29.199 8.618 29.033 9.16 Z M 36.707 12.628 C 36.415 12.636 36.15 12.478 35.913 12.15 C 35.675 11.824 35.548 11.399 35.536 10.877 C 35.527 10.258 35.588 9.639 35.718 9.033 C 35.864 8.375 36.044 7.706 36.26 7.027 C 36.474 6.339 36.685 5.676 36.891 5.036 C 36.927 4.92 36.998 4.818 37.094 4.745 C 37.229 4.662 37.385 4.622 37.543 4.629 C 37.904 4.621 38.089 4.792 38.097 5.145 C 38.1 5.225 38.064 5.407 37.99 5.691 C 37.915 5.973 37.818 6.323 37.698 6.737 C 37.588 7.152 37.472 7.603 37.353 8.089 C 37.233 8.564 37.13 9.043 37.04 9.529 C 36.951 10.015 36.891 10.464 36.861 10.876 C 37.018 10.701 37.192 10.435 37.385 10.08 C 37.588 9.722 37.803 9.319 38.034 8.873 C 38.264 8.414 38.505 7.956 38.756 7.497 C 39.005 7.03 39.256 6.6 39.509 6.212 C 39.727 5.868 39.982 5.548 40.269 5.259 C 40.525 5.012 40.761 4.885 40.983 4.881 C 41.282 4.866 41.575 4.967 41.802 5.163 C 42.038 5.348 42.222 5.686 42.353 6.176 C 42.494 6.654 42.575 7.338 42.596 8.221 C 42.607 8.693 42.663 9.135 42.762 9.546 C 42.848 9.907 43.016 10.243 43.253 10.529 C 43.479 10.766 43.763 10.879 44.105 10.871 C 44.617 10.859 45.07 10.758 45.467 10.568 C 45.832 10.388 46.176 10.168 46.491 9.911 C 46.786 9.662 47.033 9.445 47.229 9.259 C 47.424 9.063 47.578 8.965 47.689 8.962 C 47.92 8.956 48.037 9.075 48.043 9.315 C 48.046 9.416 47.974 9.579 47.829 9.804 C 47.656 10.066 47.46 10.314 47.244 10.543 C 46.98 10.827 46.694 11.091 46.389 11.331 C 46.072 11.58 45.732 11.788 45.365 11.959 C 45.007 12.128 44.642 12.217 44.272 12.226 C 43.58 12.241 43.009 12.12 42.562 11.858 C 42.124 11.597 41.793 11.158 41.567 10.54 C 41.352 9.921 41.231 9.089 41.207 8.043 C 41.193 7.47 41.148 7.054 41.072 6.795 C 41.005 6.523 40.886 6.347 40.713 6.259 C 40.599 6.473 40.45 6.778 40.268 7.175 C 40.087 7.562 39.876 7.994 39.635 8.472 C 39.407 8.95 39.161 9.434 38.902 9.923 C 38.666 10.377 38.41 10.821 38.135 11.253 C 37.914 11.609 37.66 11.943 37.376 12.251 C 37.13 12.499 36.908 12.625 36.707 12.628 Z M 52.71 7.772 C 52.439 7.758 52.309 7.586 52.321 7.253 C 52.33 7.173 52.381 7.077 52.481 6.964 C 52.561 6.851 52.685 6.777 52.823 6.76 C 53.133 6.722 53.512 6.668 53.962 6.597 C 54.423 6.516 54.926 6.424 55.476 6.32 C 55.567 5.825 55.674 5.305 55.802 4.759 C 55.93 4.213 56.073 3.68 56.231 3.164 C 56.374 2.679 56.544 2.202 56.74 1.735 C 56.883 1.372 57.077 1.031 57.318 0.724 C 57.402 0.63 57.502 0.551 57.614 0.492 C 57.686 0.445 57.768 0.417 57.853 0.41 C 57.988 0.405 58.115 0.471 58.188 0.584 C 58.334 0.766 58.374 1.011 58.293 1.229 C 58.106 1.798 57.906 2.496 57.695 3.326 C 57.485 4.155 57.259 5.06 57.021 6.042 C 58.736 5.72 60.445 5.363 62.145 4.971 C 62.335 4.887 62.481 4.897 62.583 5.006 C 62.696 5.115 62.753 5.223 62.756 5.333 C 62.76 5.475 62.722 5.581 62.644 5.653 C 62.577 5.724 62.503 5.786 62.422 5.84 L 62.407 5.855 C 62.209 5.94 61.91 6.042 61.512 6.163 C 61.113 6.273 60.653 6.393 60.134 6.528 C 59.011 6.793 57.882 7.03 56.747 7.24 L 56.104 9.986 C 55.895 10.917 55.686 11.831 55.476 12.731 C 55.385 13.096 55.275 13.325 55.145 13.419 C 54.917 13.639 54.555 13.634 54.332 13.408 C 54.22 13.289 54.198 13.043 54.271 12.669 L 55.249 7.502 C 54.649 7.608 54.119 7.683 53.658 7.736 C 53.206 7.786 52.89 7.799 52.71 7.772 Z M 63.294 12.502 C 62.702 12.517 62.23 12.301 61.879 11.856 C 61.527 11.413 61.343 10.828 61.325 10.105 C 61.321 9.825 61.35 9.546 61.412 9.273 C 61.484 8.969 61.578 8.695 61.694 8.452 C 61.615 8.373 61.555 8.275 61.521 8.169 C 61.474 8.013 61.45 7.85 61.45 7.688 C 61.412 6.614 61.78 5.566 62.48 4.753 C 62.803 4.372 63.161 4.077 63.559 3.867 C 63.965 3.656 64.379 3.546 64.801 3.535 C 65.493 3.52 66.061 3.757 66.503 4.25 C 66.947 4.733 67.181 5.481 67.203 6.498 C 67.217 7.03 67.149 7.574 67.002 8.131 C 66.863 8.689 66.664 9.23 66.407 9.745 C 66.17 10.244 65.872 10.711 65.52 11.137 C 65.216 11.522 64.854 11.856 64.446 12.128 C 64.069 12.369 63.685 12.493 63.294 12.502 Z M 62.675 7.917 C 62.741 8.008 62.776 8.118 62.773 8.23 C 62.776 8.381 62.749 8.532 62.693 8.684 C 62.647 8.835 62.595 9.043 62.543 9.307 C 62.487 9.57 62.467 9.941 62.478 10.423 C 62.489 10.906 62.684 11.144 63.065 11.135 C 63.487 11.125 63.875 10.95 64.229 10.61 C 64.611 10.22 64.926 9.769 65.162 9.276 C 65.43 8.736 65.632 8.163 65.769 7.556 C 65.915 6.938 65.981 6.359 65.969 5.816 C 65.96 5.464 65.889 5.22 65.755 5.083 C 65.621 4.935 65.383 4.864 65.043 4.872 C 64.692 4.881 64.328 5.01 63.953 5.261 C 63.579 5.51 63.267 5.842 63.043 6.232 C 62.802 6.639 62.686 7.096 62.696 7.599 C 62.699 7.709 62.692 7.814 62.675 7.915 Z M 88.574 11.304 C 88.571 11.457 88.503 11.602 88.387 11.701 C 88.272 11.804 88.123 11.861 87.969 11.862 C 87.8 11.871 87.636 11.809 87.514 11.692 C 87.39 11.574 87.326 11.39 87.32 11.138 C 87.305 10.429 87.319 9.719 87.36 9.01 C 87.403 8.235 87.46 7.469 87.532 6.713 C 87.604 5.947 87.678 5.241 87.753 4.596 C 87.434 5.075 87.085 5.606 86.707 6.188 C 86.338 6.771 85.96 7.348 85.573 7.92 C 85.185 8.493 84.806 9.021 84.435 9.5 C 84.065 9.972 83.728 10.357 83.424 10.656 C 83.118 10.945 82.867 11.093 82.665 11.096 C 82.296 11.105 81.942 10.954 81.693 10.681 C 81.411 10.377 81.256 9.976 81.259 9.561 C 81.259 9.314 81.273 9.067 81.303 8.822 C 81.334 8.497 81.372 8.16 81.414 7.807 C 81.456 7.454 81.494 7.126 81.527 6.823 C 81.56 6.511 81.574 6.28 81.571 6.13 C 81.57 6.007 81.552 5.885 81.516 5.768 C 81.494 5.657 81.443 5.603 81.363 5.606 C 81.243 5.608 81.08 5.748 80.875 6.024 C 80.629 6.353 80.4 6.696 80.192 7.051 C 79.951 7.469 79.7 7.912 79.439 8.381 L 78.733 9.71 C 78.512 10.117 78.324 10.438 78.169 10.675 C 78.076 10.854 77.958 11.019 77.819 11.165 C 77.71 11.269 77.566 11.326 77.416 11.325 C 77.225 11.33 77.047 11.235 76.881 11.036 C 76.722 10.825 76.637 10.567 76.639 10.303 C 76.635 10.132 76.659 9.865 76.711 9.502 C 76.763 9.128 76.827 8.719 76.907 8.274 C 76.997 7.831 77.083 7.396 77.163 6.971 L 77.393 5.864 C 77.466 5.522 77.56 5.288 77.679 5.164 C 77.776 5.051 77.916 4.982 78.065 4.974 C 78.241 4.963 78.411 5.038 78.522 5.175 C 78.646 5.302 78.71 5.507 78.718 5.789 C 78.718 5.838 78.691 5.976 78.637 6.197 L 78.429 6.988 C 78.355 7.289 78.272 7.609 78.181 7.944 C 78.098 8.276 78.03 8.585 77.976 8.868 C 78.187 8.491 78.409 8.084 78.64 7.647 C 78.881 7.208 79.121 6.775 79.362 6.347 C 79.603 5.909 79.844 5.511 80.088 5.152 C 80.329 4.784 80.57 4.493 80.804 4.276 C 81.041 4.059 81.268 3.949 81.489 3.944 C 81.75 3.937 82.006 4.016 82.218 4.167 C 82.451 4.323 82.643 4.534 82.79 4.802 C 82.936 5.071 83.013 5.371 83.022 5.703 C 83.018 6.032 82.985 6.361 82.924 6.685 C 82.847 7.134 82.772 7.583 82.698 8.033 C 82.632 8.489 82.593 8.948 82.581 9.408 C 82.584 9.509 82.615 9.559 82.676 9.558 C 82.725 9.556 82.784 9.52 82.853 9.448 C 83.136 9.119 83.448 8.724 83.79 8.264 C 84.13 7.793 84.475 7.298 84.824 6.777 C 85.182 6.255 85.537 5.743 85.887 5.243 C 86.236 4.731 86.561 4.271 86.864 3.861 C 87.175 3.442 87.448 3.109 87.683 2.863 C 87.928 2.615 88.121 2.49 88.262 2.486 C 88.563 2.48 88.795 2.56 88.959 2.727 C 89.125 2.893 89.21 3.18 89.221 3.581 C 89.229 3.902 89.213 4.32 89.176 4.832 C 89.146 5.347 89.105 5.906 89.048 6.511 C 89.003 7.114 88.947 7.725 88.881 8.341 C 88.825 8.944 88.768 9.509 88.709 10.034 C 88.65 10.547 88.605 10.972 88.574 11.304 Z M 96.319 11.938 C 96.146 11.94 95.982 11.859 95.878 11.72 C 95.754 11.573 95.688 11.354 95.682 11.061 C 95.675 10.72 95.712 10.232 95.798 9.595 C 95.894 8.96 96.034 8.117 96.219 7.066 C 95.964 7.716 95.678 8.332 95.361 8.912 C 95.097 9.431 94.763 9.911 94.369 10.339 C 94.017 10.708 93.65 10.898 93.269 10.908 C 92.892 10.914 92.528 10.765 92.265 10.494 C 91.979 10.208 91.825 9.699 91.809 8.965 C 91.798 8.553 91.824 8.09 91.881 7.576 C 91.938 7.051 92.016 6.532 92.116 6.016 C 92.214 5.501 92.313 5.041 92.414 4.636 C 92.515 4.222 92.61 3.919 92.694 3.725 C 92.734 3.603 92.804 3.492 92.897 3.403 C 92.977 3.337 93.078 3.303 93.182 3.306 C 93.348 3.312 93.507 3.372 93.636 3.477 C 93.8 3.593 93.885 3.793 93.892 4.074 C 93.876 4.243 93.845 4.411 93.797 4.575 C 93.743 4.826 93.671 5.14 93.579 5.514 C 93.498 5.878 93.412 6.273 93.322 6.697 C 93.231 7.122 93.156 7.546 93.096 7.97 C 93.047 8.355 93.025 8.744 93.031 9.132 C 93.03 9.291 93.055 9.449 93.103 9.6 C 93.146 9.719 93.248 9.776 93.407 9.773 C 93.549 9.769 93.721 9.624 93.925 9.337 C 94.139 9.051 94.366 8.674 94.606 8.206 C 94.856 7.727 95.11 7.199 95.367 6.618 C 95.634 6.039 95.891 5.445 96.138 4.836 C 96.394 4.226 96.627 3.647 96.835 3.1 C 96.91 2.917 96.995 2.804 97.084 2.762 C 97.175 2.709 97.278 2.68 97.383 2.679 C 97.569 2.677 97.746 2.756 97.869 2.894 C 98.025 3.035 98.112 3.236 98.109 3.446 C 98.112 3.597 98.088 3.86 98.036 4.232 C 97.994 4.606 97.931 5.045 97.841 5.55 C 97.757 6.077 97.664 6.602 97.562 7.125 L 97.27 8.776 C 97.171 9.312 97.078 9.802 96.987 10.247 C 96.923 10.606 96.857 10.964 96.787 11.322 C 96.742 11.576 96.677 11.737 96.588 11.809 C 96.52 11.887 96.423 11.934 96.32 11.938 Z M 102.419 11.764 C 102.229 11.78 102.041 11.713 101.904 11.58 C 101.793 11.469 101.73 11.318 101.728 11.161 C 101.728 11.011 101.79 10.867 101.899 10.764 C 102.027 10.632 102.2 10.511 102.417 10.405 C 102.815 10.185 103.185 9.965 103.531 9.746 C 103.888 9.526 104.174 9.294 104.389 9.046 C 104.589 8.838 104.702 8.559 104.702 8.27 C 104.696 8.039 104.616 7.865 104.463 7.748 C 104.285 7.614 104.065 7.549 103.843 7.567 C 103.692 7.57 103.481 7.605 103.212 7.672 C 102.941 7.728 102.647 7.796 102.328 7.873 L 101.415 8.075 C 101.113 8.132 100.859 8.166 100.648 8.169 C 100.267 8.178 99.98 8.093 99.784 7.918 C 99.589 7.731 99.488 7.478 99.48 7.155 C 99.477 6.995 99.566 6.751 99.75 6.425 C 99.933 6.099 100.176 5.736 100.477 5.338 C 101.128 4.486 101.85 3.692 102.635 2.964 C 103.027 2.612 103.393 2.327 103.73 2.107 C 104.076 1.888 104.364 1.775 104.595 1.771 C 104.826 1.765 105.002 1.836 105.127 1.985 C 105.255 2.146 105.324 2.347 105.321 2.554 C 105.328 2.713 105.301 2.873 105.241 3.021 C 105.184 3.145 105.061 3.243 104.872 3.318 C 104.692 3.394 104.413 3.439 104.032 3.459 C 103.649 3.78 103.241 4.146 102.809 4.56 C 102.396 4.95 102.008 5.367 101.648 5.807 C 101.341 6.17 101.091 6.578 100.907 7.016 C 101.237 6.899 101.636 6.793 102.106 6.701 C 102.584 6.6 103.072 6.543 103.561 6.532 C 104.335 6.514 104.91 6.676 105.289 7.019 C 105.679 7.351 105.88 7.799 105.893 8.362 C 105.902 8.724 105.795 9.104 105.574 9.502 C 105.363 9.889 105.08 10.253 104.726 10.592 C 104.388 10.922 104.004 11.2 103.585 11.419 C 103.23 11.626 102.829 11.744 102.419 11.764 Z M 108.302 11.369 C 108.11 11.373 107.925 11.302 107.785 11.17 C 107.632 11.022 107.55 10.793 107.544 10.481 C 107.538 10.26 107.561 9.953 107.612 9.561 C 107.663 9.156 107.733 8.716 107.823 8.243 C 107.912 7.767 108.007 7.297 108.106 6.832 C 108.214 6.357 108.326 5.932 108.437 5.558 C 108.549 5.182 108.648 4.903 108.734 4.721 C 108.783 4.612 108.858 4.516 108.953 4.443 C 109.142 4.336 109.378 4.361 109.541 4.505 C 109.655 4.593 109.714 4.768 109.721 5.029 C 109.723 5.179 109.699 5.433 109.646 5.786 C 109.605 6.128 109.544 6.532 109.465 6.997 C 109.395 7.451 109.315 7.92 109.226 8.405 C 109.151 8.861 109.071 9.315 108.988 9.769 C 108.92 10.131 108.858 10.495 108.803 10.859 C 108.775 11.004 108.704 11.137 108.6 11.241 C 108.52 11.32 108.414 11.366 108.302 11.369 Z M 109.581 2.996 C 109.344 2.999 109.112 2.931 108.914 2.799 C 108.711 2.664 108.606 2.44 108.598 2.128 C 108.583 1.904 108.641 1.68 108.764 1.492 C 108.879 1.337 109.031 1.214 109.206 1.134 C 109.35 1.059 109.508 1.015 109.67 1.003 C 109.82 1.003 109.969 1.03 110.11 1.083 C 110.281 1.128 110.429 1.226 110.552 1.374 C 110.676 1.511 110.742 1.721 110.748 2.003 C 110.753 2.192 110.688 2.377 110.564 2.52 C 110.432 2.667 110.271 2.784 110.09 2.863 C 109.932 2.942 109.758 2.988 109.581 2.996 Z M 114.331 11.363 C 113.882 11.385 113.436 11.28 113.044 11.061 C 112.696 10.848 112.41 10.548 112.211 10.191 C 112.017 9.853 111.91 9.471 111.9 9.081 C 111.872 8.327 111.997 7.575 112.268 6.87 C 112.533 6.191 112.87 5.588 113.28 5.066 C 113.7 4.534 114.13 4.081 114.575 3.709 C 115.026 3.335 115.437 3.054 115.804 2.864 C 116.181 2.665 116.449 2.563 116.61 2.56 C 116.93 2.552 117.095 2.709 117.102 3.03 C 117.107 3.181 117.01 3.359 116.815 3.566 C 116.619 3.762 116.367 3.992 116.062 4.261 C 115.758 4.531 115.433 4.834 115.089 5.175 C 114.734 5.519 114.41 5.895 114.123 6.298 C 113.815 6.72 113.566 7.183 113.385 7.674 C 113.192 8.197 113.103 8.752 113.123 9.309 C 113.138 9.912 113.391 10.208 113.882 10.197 C 114.334 10.185 114.793 10.09 115.261 9.908 C 115.738 9.727 116.205 9.493 116.661 9.211 C 117.125 8.918 117.57 8.617 117.993 8.306 C 118.418 7.992 118.803 7.697 119.148 7.418 C 119.493 7.128 119.783 6.894 120.021 6.718 C 120.256 6.541 120.424 6.452 120.525 6.449 C 120.726 6.445 120.829 6.553 120.834 6.775 C 120.838 6.945 120.729 7.175 120.503 7.461 C 120.28 7.748 119.976 8.062 119.592 8.402 C 119.21 8.743 118.779 9.09 118.306 9.443 C 117.841 9.781 117.361 10.1 116.869 10.398 C 116.419 10.663 115.951 10.896 115.469 11.095 C 115.032 11.266 114.653 11.355 114.331 11.363 Z M 1.885 35.354 C 1.534 35.361 1.238 35.212 1.001 34.906 C 0.773 34.589 0.649 34.025 0.63 33.211 C 0.61 32.381 0.606 31.552 0.618 30.722 C 0.628 29.908 0.666 29.176 0.73 28.531 C 0.806 27.885 0.916 27.369 1.056 26.985 C 1.199 26.599 1.388 26.404 1.629 26.398 C 1.801 26.394 1.953 26.486 2.088 26.674 C 2.224 26.852 2.293 27.092 2.301 27.394 C 2.303 27.812 2.283 28.23 2.24 28.645 C 2.192 29.17 2.13 29.736 2.054 30.341 C 1.987 30.936 1.93 31.516 1.884 32.08 C 1.84 32.546 1.821 33.015 1.826 33.484 C 1.829 33.645 1.838 33.775 1.85 33.876 C 1.873 33.966 1.903 34.012 1.944 34.009 C 2.094 34.006 2.251 33.871 2.416 33.606 C 2.59 33.33 2.773 32.974 2.963 32.537 C 3.154 32.09 3.354 31.601 3.562 31.074 C 3.77 30.537 3.984 30.003 4.202 29.475 C 4.42 28.947 4.644 28.464 4.875 28.027 C 5.107 27.579 5.338 27.222 5.573 26.955 C 5.808 26.677 6.04 26.535 6.27 26.531 C 6.541 26.523 6.796 26.649 7.032 26.905 C 7.279 27.151 7.408 27.508 7.419 27.982 C 7.422 28.122 7.408 28.369 7.377 28.721 C 7.339 29.115 7.297 29.508 7.253 29.902 L 7.103 31.233 C 7.053 31.666 7.012 32.054 6.981 32.398 C 6.954 32.633 6.939 32.87 6.936 33.107 C 6.949 33.63 7.005 33.891 7.106 33.888 C 7.387 33.882 7.678 33.698 7.982 33.339 C 8.293 32.969 8.604 32.5 8.912 31.93 C 9.246 31.316 9.557 30.69 9.846 30.053 L 10.749 28.099 C 10.833 27.868 10.944 27.648 11.08 27.443 C 11.178 27.32 11.277 27.258 11.378 27.255 C 11.518 27.252 11.649 27.324 11.774 27.472 C 11.917 27.644 11.992 27.862 11.985 28.086 C 11.986 28.176 11.985 28.267 11.976 28.357 C 11.964 28.451 11.941 28.543 11.906 28.63 C 11.606 29.496 11.259 30.346 10.868 31.175 C 10.532 31.88 10.145 32.56 9.709 33.208 C 9.322 33.781 8.936 34.233 8.552 34.564 C 8.169 34.883 7.81 35.048 7.479 35.055 C 6.907 35.07 6.457 34.92 6.129 34.604 C 5.81 34.28 5.644 33.841 5.632 33.289 C 5.628 32.987 5.635 32.685 5.655 32.384 C 5.686 32.01 5.722 31.608 5.763 31.173 C 5.813 30.74 5.862 30.321 5.913 29.918 C 5.965 29.514 6.007 29.161 6.04 28.86 C 6.082 28.556 6.108 28.35 6.115 28.238 C 6.121 28.098 6.105 28.027 6.066 28.029 C 6.025 28.029 5.948 28.163 5.834 28.427 C 5.728 28.68 5.6 29.006 5.45 29.401 C 5.302 29.803 5.15 30.204 4.995 30.603 C 4.815 31.06 4.607 31.562 4.369 32.111 C 4.14 32.65 3.892 33.164 3.622 33.653 C 3.398 34.09 3.119 34.497 2.791 34.864 C 2.498 35.183 2.195 35.346 1.885 35.354 Z M 13.838 35.313 C 13.647 35.329 13.459 35.262 13.321 35.129 C 13.2 35.012 13.132 34.707 13.12 34.214 C 13.109 33.761 13.175 33.173 13.32 32.445 C 13.463 31.706 13.66 30.888 13.91 29.986 C 14.45 28.076 15.069 26.189 15.765 24.33 C 16.124 23.388 16.471 22.524 16.803 21.742 C 16.927 21.457 17.059 21.258 17.195 21.144 C 17.334 21.03 17.509 20.967 17.689 20.967 C 17.81 20.961 17.93 21.002 18.023 21.08 C 18.125 21.148 18.178 21.267 18.181 21.438 C 18.182 21.498 18.122 21.696 18 22.03 C 17.848 22.475 17.687 22.916 17.518 23.355 L 16.855 25.195 C 16.609 25.875 16.359 26.59 16.106 27.341 C 15.853 28.091 15.615 28.845 15.391 29.605 C 15.169 30.354 14.979 31.072 14.824 31.761 C 14.67 32.448 14.568 33.063 14.523 33.607 C 14.756 33.31 15.023 32.932 15.324 32.473 C 15.625 32.013 15.944 31.519 16.283 30.988 C 16.621 30.455 16.964 29.93 17.314 29.409 C 17.663 28.888 18.008 28.413 18.349 27.982 C 18.691 27.55 19.009 27.207 19.304 26.949 C 19.609 26.68 19.876 26.541 20.108 26.537 C 20.451 26.514 20.788 26.638 21.035 26.878 C 21.28 27.104 21.41 27.481 21.422 28.015 C 21.429 28.317 21.377 28.679 21.267 29.104 C 21.167 29.529 21.047 29.974 20.907 30.44 C 20.767 30.908 20.642 31.353 20.531 31.776 C 20.439 32.133 20.393 32.499 20.392 32.867 C 20.401 33.279 20.562 33.481 20.874 33.473 C 21.354 33.463 21.833 33.345 22.31 33.123 C 22.798 32.9 23.261 32.626 23.692 32.306 C 24.126 31.974 24.524 31.642 24.887 31.312 L 25.816 30.446 C 26.092 30.188 26.323 30.057 26.515 30.053 C 26.755 30.047 26.879 30.17 26.885 30.421 C 26.884 30.503 26.87 30.584 26.844 30.662 C 26.791 30.794 26.712 30.915 26.612 31.016 C 26.396 31.266 26.17 31.507 25.936 31.74 C 25.652 32.039 25.319 32.359 24.935 32.699 C 24.55 33.05 24.14 33.373 23.709 33.665 C 23.272 33.966 22.822 34.217 22.355 34.419 C 21.929 34.604 21.472 34.706 21.008 34.722 C 20.406 34.737 19.935 34.577 19.596 34.242 C 19.266 33.898 19.095 33.42 19.08 32.807 C 19.072 32.425 19.12 31.962 19.229 31.416 C 19.335 30.87 19.472 30.294 19.64 29.686 C 19.816 29.068 19.992 28.464 20.169 27.878 C 19.853 28.107 19.51 28.446 19.14 28.899 C 18.778 29.339 18.399 29.841 18 30.404 C 17.601 30.956 17.202 31.519 16.805 32.092 C 16.416 32.663 16.037 33.196 15.667 33.687 C 15.362 34.104 15.024 34.496 14.657 34.858 C 14.341 35.156 14.07 35.309 13.838 35.313 Z M 26.524 34.411 C 26.332 34.416 26.147 34.345 26.007 34.214 C 25.854 34.066 25.772 33.837 25.765 33.524 C 25.76 33.303 25.783 32.997 25.834 32.603 C 25.884 32.199 25.955 31.76 26.045 31.285 C 26.132 30.811 26.227 30.341 26.326 29.876 C 26.436 29.401 26.546 28.976 26.658 28.6 C 26.77 28.226 26.868 27.947 26.956 27.763 C 27.005 27.655 27.08 27.56 27.174 27.487 C 27.363 27.378 27.6 27.402 27.763 27.547 C 27.875 27.638 27.934 27.811 27.942 28.072 C 27.945 28.223 27.921 28.475 27.868 28.829 C 27.826 29.172 27.766 29.576 27.687 30.04 C 27.616 30.493 27.537 30.964 27.448 31.449 C 27.372 31.904 27.292 32.359 27.209 32.813 C 27.129 33.245 27.067 33.61 27.023 33.903 C 26.996 34.048 26.926 34.181 26.822 34.285 C 26.742 34.364 26.636 34.409 26.524 34.413 Z M 27.803 26.039 C 27.566 26.043 27.334 25.974 27.136 25.843 C 26.932 25.707 26.826 25.484 26.82 25.172 C 26.804 24.947 26.862 24.723 26.986 24.534 C 27.101 24.38 27.253 24.257 27.428 24.178 C 27.572 24.103 27.73 24.057 27.892 24.045 C 28.042 24.046 28.19 24.073 28.33 24.125 C 28.505 24.174 28.66 24.276 28.774 24.418 C 28.898 24.555 28.962 24.765 28.97 25.047 C 28.975 25.236 28.909 25.421 28.786 25.564 C 28.654 25.711 28.493 25.828 28.312 25.907 C 28.154 25.986 27.98 26.031 27.803 26.039 Z M 33.028 34.787 C 32.256 34.805 31.643 34.568 31.19 34.076 C 30.746 33.573 30.514 32.865 30.493 31.95 C 30.48 31.387 30.538 30.728 30.672 29.97 C 30.815 29.202 30.996 28.394 31.217 27.543 C 31.449 26.683 31.699 25.833 31.97 24.991 C 32.243 24.149 32.506 23.37 32.76 22.649 C 33.024 21.919 33.256 21.31 33.454 20.822 C 33.569 20.548 33.736 20.409 33.957 20.403 C 34.258 20.396 34.413 20.578 34.421 20.951 C 34.424 21.071 34.376 21.319 34.273 21.693 C 34.145 22.16 34.01 22.626 33.87 23.091 C 33.701 23.638 33.519 24.246 33.325 24.914 C 33.129 25.582 32.93 26.272 32.726 26.98 C 32.53 27.679 32.351 28.371 32.187 29.059 C 32.021 29.737 31.892 30.374 31.795 30.97 C 31.706 31.473 31.662 31.984 31.664 32.496 C 31.657 32.731 31.738 32.961 31.89 33.14 C 32.055 33.291 32.275 33.367 32.498 33.351 C 32.959 33.34 33.42 33.239 33.877 33.048 C 34.344 32.846 34.79 32.603 35.214 32.322 C 35.64 32.03 36.024 31.745 36.369 31.464 C 36.724 31.175 37.024 30.936 37.272 30.749 C 37.517 30.553 37.69 30.454 37.791 30.451 C 38.011 30.446 38.126 30.564 38.13 30.805 C 38.133 30.885 38.055 31.037 37.9 31.264 C 37.437 31.878 36.915 32.446 36.343 32.96 C 35.994 33.274 35.63 33.569 35.25 33.844 C 34.893 34.104 34.51 34.326 34.106 34.505 C 33.73 34.686 33.37 34.779 33.028 34.787 Z M 43.367 27.439 C 43.37 27.778 43.273 28.11 43.089 28.395 C 42.895 28.701 42.637 28.998 42.312 29.289 C 41.987 29.568 41.627 29.832 41.231 30.084 C 40.514 30.54 39.751 30.917 38.953 31.209 C 38.887 31.552 38.855 31.901 38.857 32.25 C 38.862 32.443 38.91 32.577 39.002 32.656 C 39.095 32.734 39.236 32.77 39.426 32.766 C 39.881 32.749 40.331 32.663 40.76 32.509 C 41.252 32.337 41.73 32.129 42.192 31.887 C 42.678 31.633 43.143 31.366 43.589 31.084 C 44.033 30.802 44.439 30.537 44.805 30.285 C 45.181 30.036 45.491 29.832 45.738 29.676 C 45.987 29.519 46.149 29.44 46.23 29.437 C 46.351 29.436 46.441 29.473 46.503 29.552 C 46.573 29.617 46.614 29.709 46.614 29.805 C 46.617 29.887 46.494 30.047 46.25 30.282 C 45.946 30.579 45.626 30.858 45.291 31.119 C 44.886 31.431 44.433 31.752 43.927 32.087 C 43.423 32.42 42.899 32.736 42.354 33.03 C 41.852 33.309 41.328 33.548 40.789 33.745 C 40.358 33.913 39.903 34.011 39.441 34.033 C 38.919 34.045 38.508 33.859 38.208 33.475 C 37.907 33.089 37.749 32.484 37.73 31.659 C 37.717 31.094 37.775 30.53 37.901 29.98 C 38.159 28.886 38.631 27.855 39.291 26.946 C 39.602 26.526 39.93 26.196 40.275 25.958 C 40.621 25.707 40.96 25.579 41.291 25.572 C 41.924 25.557 42.423 25.721 42.794 26.063 C 43.163 26.407 43.354 26.866 43.367 27.439 Z M 39.243 30.039 C 39.548 29.841 39.864 29.632 40.191 29.415 C 40.518 29.194 40.819 28.971 41.094 28.743 C 41.37 28.517 41.591 28.279 41.755 28.035 C 41.92 27.81 42.008 27.538 42.008 27.259 C 41.999 26.887 41.794 26.706 41.392 26.716 C 41.142 26.721 40.88 26.888 40.606 27.217 C 40.305 27.597 40.052 28.014 39.854 28.457 C 39.613 28.97 39.409 29.499 39.243 30.04 Z M 53.137 33.998 C 52.978 34.003 52.826 33.934 52.725 33.811 C 52.603 33.659 52.54 33.468 52.547 33.273 C 52.543 33.101 52.571 32.82 52.633 32.425 C 52.704 32.021 52.777 31.552 52.856 31.018 C 52.943 30.482 53.015 29.927 53.072 29.353 C 53.13 28.768 53.151 28.21 53.139 27.676 C 53.133 27.415 53.193 27.223 53.319 27.098 C 53.441 26.971 53.607 26.897 53.783 26.891 C 53.943 26.888 54.066 26.986 54.15 27.185 C 54.236 27.385 54.26 27.786 54.226 28.391 C 54.662 27.354 55.15 26.517 55.686 25.881 C 56.234 25.235 56.78 24.769 57.325 24.486 C 57.87 24.19 58.364 24.038 58.805 24.029 C 59.095 24.021 59.308 24.077 59.442 24.195 C 59.585 24.3 59.657 24.425 59.661 24.566 C 59.67 24.748 59.583 24.922 59.431 25.024 C 59.182 25.178 58.917 25.306 58.641 25.404 C 58.204 25.585 57.802 25.796 57.436 26.038 C 57.081 26.265 56.741 26.566 56.419 26.935 C 56.106 27.305 55.802 27.775 55.504 28.345 C 55.206 28.905 54.91 29.597 54.618 30.418 C 54.326 31.24 54.018 32.227 53.694 33.381 C 53.638 33.603 53.562 33.761 53.464 33.855 C 53.379 33.946 53.26 33.998 53.136 33.998 Z M 65.015 26.929 C 65.018 27.269 64.921 27.602 64.738 27.887 C 64.543 28.193 64.284 28.49 63.959 28.78 C 63.636 29.059 63.274 29.323 62.88 29.574 C 62.163 30.03 61.4 30.407 60.602 30.7 C 60.536 31.043 60.503 31.392 60.506 31.742 C 60.51 31.933 60.559 32.068 60.65 32.146 C 60.742 32.224 60.884 32.262 61.075 32.258 C 61.496 32.247 61.941 32.161 62.409 32 C 62.9 31.827 63.378 31.619 63.839 31.377 C 64.327 31.125 64.792 30.856 65.237 30.574 C 65.681 30.292 66.086 30.027 66.452 29.777 C 66.829 29.526 67.14 29.324 67.387 29.167 C 67.634 29.01 67.798 28.93 67.878 28.929 C 67.998 28.926 68.09 28.964 68.152 29.044 C 68.222 29.109 68.263 29.201 68.263 29.297 C 68.266 29.377 68.143 29.537 67.899 29.774 C 67.595 30.07 67.274 30.35 66.938 30.611 C 66.009 31.32 65.028 31.958 64.003 32.52 C 63.5 32.799 62.977 33.038 62.437 33.235 C 61.941 33.419 61.49 33.514 61.09 33.524 C 60.568 33.536 60.157 33.349 59.856 32.965 C 59.556 32.579 59.396 31.974 59.377 31.151 C 59.365 30.597 59.422 30.037 59.549 29.472 C 59.805 28.378 60.278 27.346 60.938 26.437 C 61.25 26.017 61.578 25.688 61.924 25.448 C 62.27 25.199 62.607 25.071 62.939 25.062 C 63.571 25.047 64.072 25.213 64.441 25.555 C 64.811 25.897 65.003 26.356 65.016 26.929 Z M 60.89 29.531 C 61.197 29.333 61.513 29.124 61.84 28.905 C 62.166 28.686 62.467 28.463 62.743 28.235 C 62.996 28.032 63.219 27.793 63.404 27.526 C 63.569 27.301 63.658 27.029 63.657 26.75 C 63.648 26.379 63.443 26.198 63.041 26.207 C 62.791 26.213 62.529 26.379 62.255 26.707 C 61.954 27.088 61.7 27.504 61.501 27.947 C 61.26 28.46 61.056 28.989 60.89 29.531 Z M 68.299 33.746 C 67.918 33.755 67.598 33.588 67.339 33.241 C 67.089 32.885 66.958 32.42 66.944 31.847 C 66.932 31.315 67.05 30.784 67.298 30.255 C 67.557 29.727 67.902 29.214 68.332 28.722 C 68.763 28.229 69.234 27.775 69.746 27.362 C 70.232 26.955 70.746 26.585 71.286 26.253 C 71.81 25.94 72.292 25.692 72.73 25.511 C 73.166 25.33 73.515 25.235 73.777 25.229 C 73.898 25.222 74.019 25.251 74.124 25.312 C 74.217 25.361 74.264 25.456 74.267 25.596 C 74.267 25.691 74.231 25.783 74.167 25.854 L 74.197 25.854 C 74.419 25.849 74.532 25.976 74.538 26.238 C 74.541 26.329 74.509 26.516 74.446 26.798 C 74.383 27.071 74.31 27.416 74.229 27.829 C 74.149 28.243 74.078 28.703 74.02 29.206 C 73.961 29.708 73.938 30.213 73.95 30.718 C 73.961 31.149 74.131 31.362 74.462 31.354 C 74.852 31.34 75.235 31.243 75.585 31.071 C 75.962 30.891 76.329 30.677 76.684 30.427 C 77.039 30.167 77.365 29.914 77.66 29.665 C 77.955 29.406 78.206 29.188 78.412 29.013 C 78.62 28.837 78.768 28.748 78.858 28.746 C 78.939 28.743 79.009 28.768 79.07 28.817 C 79.132 28.866 79.164 28.946 79.167 29.056 C 79.17 29.157 79.073 29.339 78.878 29.606 C 78.337 30.315 77.71 30.953 77.011 31.506 C 76.625 31.816 76.207 32.083 75.764 32.304 C 75.338 32.515 74.929 32.626 74.538 32.635 C 74.24 32.643 73.947 32.554 73.704 32.383 C 73.458 32.197 73.255 31.88 73.094 31.433 C 72.943 30.982 72.858 30.362 72.838 29.567 L 72.83 29.19 C 72.382 29.979 71.882 30.737 71.333 31.458 C 70.885 32.072 70.361 32.626 69.775 33.108 C 69.263 33.523 68.77 33.736 68.299 33.746 Z M 73.515 26.323 L 73.308 26.418 C 72.815 26.66 72.339 26.933 71.881 27.235 C 71.397 27.56 70.923 27.917 70.461 28.311 C 70.009 28.703 69.601 29.11 69.24 29.531 C 68.879 29.952 68.593 30.375 68.382 30.804 C 68.171 31.23 68.069 31.645 68.078 32.046 C 68.075 32.153 68.103 32.258 68.161 32.348 C 68.223 32.416 68.323 32.449 68.465 32.445 C 68.665 32.44 68.923 32.309 69.239 32.049 C 69.608 31.726 69.952 31.375 70.268 31 C 70.649 30.568 71.03 30.092 71.409 29.57 C 71.789 29.048 72.147 28.522 72.486 27.991 C 72.835 27.46 73.135 26.97 73.386 26.522 C 73.424 26.452 73.468 26.385 73.517 26.323 Z M 83.895 25.4 C 84.151 24.739 84.392 24.06 84.615 23.361 C 84.849 22.661 85.059 21.948 85.242 21.219 C 85.287 21.037 85.376 20.869 85.501 20.73 C 85.615 20.603 85.777 20.528 85.948 20.524 C 86.064 20.519 86.175 20.566 86.252 20.652 C 86.348 20.747 86.4 20.876 86.397 21.011 C 86.401 21.202 86.334 21.536 86.194 22.011 C 86.066 22.487 85.899 23.089 85.694 23.818 C 85.501 24.548 85.306 25.386 85.107 26.336 C 84.917 27.276 84.761 28.315 84.637 29.455 C 84.523 30.594 84.482 31.808 84.512 33.093 C 84.528 33.337 84.47 33.58 84.347 33.791 C 84.231 33.986 84.088 34.084 83.918 34.088 C 83.817 34.091 83.718 34.067 83.63 34.019 C 83.54 33.971 83.455 33.853 83.38 33.663 C 83.295 33.384 83.238 33.098 83.21 32.808 C 83.152 32.267 83.119 31.723 83.112 31.179 C 83.1 30.657 83.117 30.089 83.162 29.475 C 82.756 30.264 82.269 31.009 81.708 31.696 C 81.191 32.322 80.684 32.807 80.192 33.15 C 79.707 33.493 79.289 33.669 78.939 33.678 C 78.541 33.702 78.153 33.551 77.875 33.265 C 77.607 32.989 77.469 32.571 77.453 32.007 C 77.449 31.481 77.555 30.959 77.765 30.476 C 77.983 29.948 78.277 29.428 78.647 28.917 C 79.378 27.9 80.249 26.991 81.233 26.217 C 81.697 25.854 82.128 25.572 82.524 25.371 C 82.921 25.16 83.245 25.053 83.495 25.047 C 83.595 25.044 83.693 25.08 83.769 25.146 C 83.847 25.207 83.893 25.301 83.895 25.4 Z M 83.71 25.872 C 83.633 25.951 83.548 26.024 83.458 26.089 C 83.361 26.161 83.252 26.24 83.133 26.323 C 82.647 26.685 82.169 27.058 81.699 27.442 C 81.187 27.857 80.696 28.311 80.225 28.805 C 79.786 29.26 79.408 29.771 79.102 30.324 C 78.813 30.855 78.674 31.395 78.688 31.948 C 78.694 32.19 78.816 32.307 79.057 32.301 C 79.388 32.294 79.746 32.129 80.13 31.81 C 80.523 31.478 80.925 31.025 81.333 30.452 C 81.741 29.87 82.146 29.191 82.549 28.418 C 82.953 27.633 83.339 26.786 83.71 25.872 Z M 88.236 32.96 C 88.044 32.965 87.858 32.893 87.719 32.761 C 87.565 32.615 87.484 32.384 87.478 32.074 C 87.472 31.852 87.494 31.546 87.546 31.152 C 87.597 30.748 87.666 30.309 87.756 29.834 C 87.847 29.36 87.94 28.89 88.039 28.425 C 88.149 27.949 88.259 27.525 88.37 27.149 C 88.45 26.864 88.549 26.584 88.667 26.312 C 88.716 26.203 88.792 26.109 88.887 26.036 C 89.076 25.928 89.312 25.952 89.475 26.097 C 89.588 26.187 89.647 26.36 89.653 26.621 C 89.656 26.772 89.632 27.024 89.581 27.377 C 89.539 27.721 89.477 28.124 89.399 28.588 C 89.328 29.044 89.248 29.513 89.161 29.997 C 89.085 30.452 89.004 30.906 88.92 31.36 C 88.852 31.723 88.791 32.087 88.736 32.452 C 88.709 32.597 88.639 32.73 88.535 32.834 C 88.455 32.912 88.348 32.957 88.236 32.96 Z M 89.516 24.588 C 89.279 24.592 89.046 24.524 88.848 24.392 C 88.644 24.257 88.539 24.033 88.532 23.721 C 88.515 23.496 88.574 23.272 88.697 23.083 C 88.812 22.929 88.964 22.806 89.14 22.726 C 89.284 22.65 89.442 22.606 89.605 22.595 C 89.754 22.595 89.902 22.622 90.041 22.674 C 90.217 22.723 90.373 22.825 90.487 22.967 C 90.61 23.103 90.675 23.314 90.683 23.596 C 90.687 23.785 90.621 23.97 90.498 24.113 C 90.366 24.26 90.205 24.377 90.025 24.456 C 89.866 24.535 89.693 24.58 89.516 24.588 Z M 93.094 32.425 C 92.802 32.431 92.537 32.271 92.299 31.945 C 92.06 31.62 91.935 31.194 91.923 30.671 C 91.914 30.051 91.975 29.432 92.105 28.826 C 92.251 28.17 92.43 27.502 92.647 26.824 C 92.861 26.134 93.072 25.471 93.276 24.833 C 93.312 24.716 93.384 24.614 93.481 24.54 C 93.616 24.457 93.772 24.417 93.93 24.424 C 94.291 24.416 94.476 24.587 94.484 24.94 C 94.485 25.02 94.451 25.201 94.377 25.484 C 94.302 25.768 94.205 26.118 94.085 26.532 C 93.973 26.947 93.859 27.398 93.739 27.884 C 93.621 28.359 93.516 28.838 93.427 29.324 C 93.343 29.769 93.283 30.219 93.248 30.671 C 93.404 30.496 93.579 30.231 93.772 29.875 C 93.973 29.517 94.19 29.114 94.421 28.668 C 94.651 28.21 94.892 27.751 95.142 27.293 C 95.392 26.825 95.643 26.395 95.894 26.008 C 96.112 25.663 96.367 25.344 96.655 25.054 C 96.91 24.807 97.148 24.68 97.37 24.676 C 97.669 24.661 97.962 24.762 98.189 24.958 C 98.423 25.143 98.607 25.481 98.739 25.97 C 98.881 26.449 98.962 27.131 98.983 28.016 C 98.994 28.489 99.05 28.93 99.149 29.341 C 99.235 29.702 99.403 30.038 99.64 30.324 C 99.866 30.561 100.15 30.674 100.492 30.666 C 101.004 30.654 101.457 30.553 101.854 30.363 C 102.219 30.183 102.562 29.962 102.878 29.706 C 103.173 29.457 103.42 29.24 103.615 29.054 C 103.811 28.858 103.965 28.76 104.075 28.757 C 104.306 28.751 104.424 28.869 104.43 29.11 C 104.431 29.211 104.361 29.374 104.215 29.599 C 104.079 29.813 103.885 30.059 103.63 30.336 C 103.366 30.621 103.08 30.885 102.775 31.125 C 102.46 31.374 102.116 31.585 101.752 31.754 C 101.409 31.918 101.037 32.009 100.657 32.021 C 99.965 32.036 99.396 31.915 98.947 31.653 C 98.511 31.392 98.179 30.951 97.954 30.335 C 97.738 29.716 97.618 28.884 97.592 27.839 C 97.58 27.265 97.535 26.849 97.458 26.59 C 97.392 26.318 97.273 26.14 97.1 26.054 C 96.942 26.355 96.794 26.66 96.655 26.97 C 96.474 27.356 96.263 27.789 96.022 28.267 C 95.793 28.745 95.548 29.229 95.289 29.718 C 95.053 30.172 94.797 30.616 94.521 31.048 C 94.3 31.404 94.046 31.738 93.763 32.046 C 93.517 32.294 93.295 32.419 93.093 32.423 Z M 104.585 36.484 C 103.813 36.502 103.245 36.44 102.879 36.298 C 102.515 36.155 102.33 35.959 102.322 35.707 C 102.314 35.561 102.365 35.418 102.465 35.312 C 102.574 35.209 102.718 35.151 102.867 35.152 C 103.039 35.147 103.284 35.167 103.606 35.209 C 103.921 35.261 104.239 35.284 104.558 35.278 C 105.59 35.253 106.43 34.927 107.079 34.298 C 107.727 33.669 108.211 32.718 108.533 31.443 C 108.854 30.158 109.051 28.525 109.125 26.541 C 108.839 27.16 108.512 27.783 108.147 28.404 C 107.803 28.997 107.413 29.561 106.98 30.092 C 106.611 30.556 106.181 30.967 105.7 31.313 C 105.255 31.626 104.812 31.787 104.37 31.796 C 103.948 31.807 103.635 31.709 103.43 31.502 C 103.235 31.295 103.131 30.951 103.119 30.469 C 103.12 29.989 103.233 29.517 103.448 29.089 C 103.7 28.555 104.011 28.051 104.377 27.588 C 104.767 27.086 105.198 26.608 105.669 26.155 C 106.112 25.714 106.585 25.305 107.085 24.929 C 107.569 24.567 108.019 24.279 108.436 24.068 C 108.853 23.857 109.191 23.748 109.452 23.742 C 109.684 23.724 109.911 23.819 110.06 23.999 C 110.204 24.177 110.283 24.517 110.295 25.02 C 110.322 26.196 110.31 27.342 110.254 28.46 C 110.21 29.568 110.089 30.602 109.891 31.562 C 109.72 32.45 109.404 33.303 108.956 34.088 C 108.557 34.806 107.973 35.403 107.264 35.817 C 106.552 36.236 105.658 36.458 104.585 36.484 Z M 108.821 25.069 C 108.326 25.403 107.818 25.778 107.296 26.192 C 106.774 26.606 106.287 27.045 105.836 27.508 C 105.421 27.936 105.063 28.416 104.77 28.936 C 104.499 29.425 104.371 29.911 104.382 30.393 C 104.386 30.544 104.483 30.618 104.674 30.614 C 104.824 30.609 105.027 30.49 105.282 30.252 C 105.548 30.004 105.842 29.68 106.164 29.28 C 106.865 28.383 107.507 27.441 108.085 26.46 C 108.374 25.961 108.619 25.496 108.821 25.069 Z" fill="var(--token-ffd4ef1e-33eb-433e-90f2-aa3fc1320387, rgba(0, 0, 0, 0.35))"></path></svg>